<svg width="75" height="75" viewBox="0 0 75 75" fill="none" xmlns="http://www.w3.org/2000/svg">
<circle cx="37.5" cy="37.5" r="37.5" fill="url(#paint0_linear_158_7)"/>
<path fill-rule="evenodd" clip-rule="evenodd" d="M35.3131 21.1131C31.8859 21.5497 28.7819 23.0102 26.432 25.2916L25.6206 26.0793L23.2162 25.9121C20.1812 25.7011 14.6371 25.6943 13.1667 25.8997C9.4203 26.4232 7.17933 27.3727 6.33959 28.7925C4.61315 31.7115 9.56944 36.2602 18.9309 40.3482C19.8319 40.7417 20.9866 41.22 21.4969 41.4112L22.4249 41.7588L22.8151 42.6625C24.4762 46.508 27.917 49.7225 31.8869 51.1374C34.9223 52.2194 38.7957 52.2887 41.866 51.316C43.008 50.9542 45.1644 49.9829 45.0543 49.8798C45.0026 49.8314 44.4962 49.6996 43.9289 49.5869C41.3716 49.0788 37.2718 47.6832 35.5699 46.7415C33.6842 45.6981 32.9085 45.0449 34.0063 45.4248C34.5664 45.6186 37.7176 46.3461 40.0876 46.8288C46.7795 48.192 53.99 48.8707 58.5516 48.5672C62.9903 48.2717 65.7318 47.5223 67.0861 46.2341C67.809 45.5464 67.9979 45.1444 68 44.2887C68.0041 42.5541 66.5173 40.6837 63.3454 38.4331C60.9783 36.7538 57.9023 35.1691 52.9088 33.0565C52.3703 32.8286 52.3581 32.8108 52.0259 31.7518C51.6144 30.4404 50.8479 28.903 49.98 27.6483C49.1555 26.4561 47.4137 24.7051 46.2346 23.8828C43.0514 21.6633 39.0197 20.6408 35.3131 21.1131ZM19.368 27.6244C16.0732 27.9127 13.7854 28.8192 13.2169 30.0619C12.8947 30.7662 12.9289 31.3118 13.3475 32.1432C14.0128 33.4647 15.7293 34.9749 18.3061 36.5059C19.4635 37.1935 21.3878 38.2062 21.5372 38.2062C21.572 38.2062 21.6005 37.4152 21.6005 36.4485C21.6005 33.3485 22.3445 30.8222 24.0891 27.9982L24.4053 27.4863L22.4873 27.5028C21.4322 27.5119 20.0286 27.5666 19.368 27.6244ZM55.758 27.8863C54.7065 28.93 55.4479 30.6037 56.8968 30.4571C57.5781 30.3882 58.0227 30.0557 58.2367 29.455C58.4567 28.8377 58.3422 28.3987 57.8284 27.8887C57.4728 27.5357 57.3456 27.4863 56.792 27.4863C56.2391 27.4863 56.1111 27.5358 55.758 27.8863ZM52.7166 36.7312C52.7078 38.4889 52.6649 38.9161 52.3826 40.054C52.0017 41.5895 51.2781 43.3692 50.5949 44.4507C50.3268 44.8751 50.1418 45.2562 50.1837 45.2976C50.3201 45.4327 54.7613 45.3627 55.8819 45.2077C58.5015 44.8455 60.2916 44.1248 60.9786 43.1557C61.4521 42.4875 61.4763 41.6717 61.0485 40.7958C60.6217 39.9219 58.915 38.2845 57.3481 37.2455C56.1526 36.4528 53.0376 34.7126 52.8161 34.7137C52.7669 34.7139 52.7222 35.6217 52.7166 36.7312ZM15.2436 43.6832C14.6459 43.8947 13.8788 44.6327 13.701 45.1674C13.6258 45.3938 13.587 45.885 13.6149 46.2589C13.7076 47.4999 14.6207 48.4396 15.8306 48.5392C16.6291 48.6049 17.2426 48.413 17.8075 47.9207C19.9163 46.0829 17.8966 42.7447 15.2436 43.6832ZM20.668 47.7179C20.0834 47.9618 19.9722 48.7661 20.4566 49.247C20.7169 49.5052 20.8433 49.5452 21.215 49.4861C21.7383 49.4029 22.0859 49.0352 22.0859 48.5647C22.0859 47.9012 21.3222 47.4451 20.668 47.7179Z" fill="white"/>
<defs>
<linearGradient id="paint0_linear_158_7" x1="8.33333" y1="68.2292" x2="72.3958" y2="9.89583" gradientUnits="userSpaceOnUse">
<stop stop-color="#101010"/>
<stop offset="1" stop-color="#212121"/>
</linearGradient>
</defs>
</svg>
