<svg width="62" height="31" viewBox="0 0 62 31" fill="none" xmlns="http://www.w3.org/2000/svg">
<path fill-rule="evenodd" clip-rule="evenodd" d="M29.3131 0.113116C25.8859 0.549742 22.7819 2.01018 20.432 4.29159L19.6206 5.07932L17.2162 4.91214C14.1812 4.70112 8.63713 4.69425 7.16673 4.89974C3.4203 5.4232 1.17933 6.3727 0.339591 7.79254C-1.38685 10.7115 3.56944 15.2602 12.9309 19.3482C13.8319 19.7417 14.9866 20.22 15.4969 20.4112L16.4249 20.7588L16.8151 21.6625C18.4762 25.508 21.917 28.7225 25.8869 30.1374C28.9223 31.2194 32.7957 31.2887 35.866 30.316C37.008 29.9542 39.1644 28.9829 39.0543 28.8798C39.0026 28.8314 38.4962 28.6996 37.9289 28.5869C35.3716 28.0788 31.2718 26.6832 29.5699 25.7415C27.6842 24.6981 26.9085 24.0449 28.0063 24.4248C28.5664 24.6186 31.7176 25.3461 34.0876 25.8288C40.7795 27.192 47.99 27.8707 52.5516 27.5672C56.9903 27.2717 59.7318 26.5223 61.0861 25.2341C61.809 24.5464 61.9979 24.1444 62 23.2887C62.0041 21.5541 60.5173 19.6837 57.3454 17.4331C54.9783 15.7538 51.9023 14.1691 46.9088 12.0565C46.3703 11.8286 46.3581 11.8108 46.0259 10.7518C45.6144 9.4404 44.8479 7.903 43.98 6.64828C43.1555 5.45609 41.4137 3.70513 40.2346 2.88283C37.0514 0.663324 33.0197 -0.359162 29.3131 0.113116ZM13.368 6.62444C10.0732 6.91267 7.78537 7.81916 7.21685 9.06195C6.89467 9.76621 6.92889 10.3118 7.34754 11.1432C8.01278 12.4647 9.72928 13.9749 12.3061 15.5059C13.4635 16.1935 15.3878 17.2062 15.5372 17.2062C15.572 17.2062 15.6005 16.4152 15.6005 15.4485C15.6005 12.3485 16.3445 9.82222 18.0891 6.99819L18.4053 6.48628L16.4873 6.50278C15.4322 6.51194 14.0286 6.56662 13.368 6.62444ZM49.758 6.88629C48.7065 7.92998 49.4479 9.60373 50.8968 9.45714C51.5781 9.38824 52.0227 9.05569 52.2367 8.45501C52.4567 7.83771 52.3422 7.39868 51.8284 6.8887C51.4728 6.53567 51.3456 6.48628 50.792 6.48628C50.2391 6.48628 50.1111 6.53579 49.758 6.88629ZM46.7166 15.7312C46.7078 17.4889 46.6649 17.9161 46.3826 19.054C46.0017 20.5895 45.2781 22.3692 44.5949 23.4507C44.3268 23.8751 44.1418 24.2562 44.1837 24.2976C44.32 24.4327 48.7613 24.3627 49.8819 24.2077C52.5015 23.8455 54.2916 23.1248 54.9786 22.1557C55.4521 21.4875 55.4763 20.6717 55.0485 19.7958C54.6217 18.9219 52.915 17.2845 51.3481 16.2455C50.1526 15.4528 47.0376 13.7126 46.8161 13.7137C46.7669 13.7139 46.7222 14.6217 46.7166 15.7312ZM9.24364 22.6832C8.64587 22.8947 7.87882 23.6327 7.70104 24.1674C7.6258 24.3938 7.58697 24.885 7.61488 25.2589C7.70759 26.4999 8.62075 27.4396 9.8306 27.5392C10.6291 27.6049 11.2426 27.413 11.8075 26.9207C13.9163 25.0829 11.8966 21.7447 9.24364 22.6832ZM14.668 26.7179C14.0834 26.9618 13.9722 27.7661 14.4566 28.247C14.7169 28.5052 14.8433 28.5452 15.215 28.4861C15.7383 28.4029 16.0859 28.0352 16.0859 27.5647C16.0859 26.9012 15.3222 26.4451 14.668 26.7179Z" fill="white"/>
</svg>
